{"title":"18+ Billionaire Boys Club 2018 Movies 720p BluRay x264 5.1 +Samp","magnet":"magnet:?xt=urn:btih:98bcc25dae528c9be8850a1ad2ba0836c1232d16&dn=18%2B+Billionaire+Boys+Club+2018+Movies+720p+BluRay+x264+5.1+%2BSamp&tr=udp%3A%2F%2Ftracker.leechers-paradise.org%3A6969&tr=udp%3A%2F%2Fzer0day.ch%3A1337&tr=udp%3A%2F%2Fopen.demonii.com%3A1337&tr=udp%3A%2F%2Ftracker.coppersurfer.tk%3A6969&tr=udp%3A%2F%2Fexodus.desync.com%3A6969","uploader":"basicssom","categoryP":"video","categoryS":"hd___movies","size":"1085195798","seeders":"0","leechers":"0","description":"18+ Billionaire Boys Club 2018 Movies 720p BluRay x264 5.1 with Sample &#x263B;rDX&#x263B;\r\n\r\nSCREEN SHOTS &amp; POSTER:\r\n   <a href=\"\nhttp://iphonehosting.eu/2018/8/a/home/index.html\" rel=\"nofollow\" target=\"_NEW\">\nhttp://iphonehosting.eu/2018/8/a/home/index.html</a> <a href=\"\nhttp://iphonehosting.eu/2018/8/a/home/1.html\" rel=\"nofollow\" target=\"_NEW\">\nhttp://iphonehosting.eu/2018/8/a/home/1.html</a> <a href=\"\nhttp://iphonehosting.eu/2018/8/a/home/2.html\" rel=\"nofollow\" target=\"_NEW\">\nhttp://iphonehosting.eu/2018/8/a/home/2.html</a>   <a href=\"\nhttp://iphonehosting.eu/2018/8/a/home/3.html\" rel=\"nofollow\" target=\"_NEW\">\nhttp://iphonehosting.eu/2018/8/a/home/3.html</a>   <a href=\"\nhttp://iphonehosting.eu/2018/8/a/home/4.html\" rel=\"nofollow\" target=\"_NEW\">\nhttp://iphonehosting.eu/2018/8/a/home/4.html</a>   <a href=\"\nhttp://iphonehosting.eu/2018/8/a/home/5.html\" rel=\"nofollow\" target=\"_NEW\">\nhttp://iphonehosting.eu/2018/8/a/home/5.html</a>   <a href=\"\nhttp://iphonehosting.eu/2018/8/a/home/6.html\" rel=\"nofollow\" target=\"_NEW\">\nhttp://iphonehosting.eu/2018/8/a/home/6.html</a>   <a href=\"\nhttp://iphonehosting.eu/2018/8/a/home/7.html\" rel=\"nofollow\" target=\"_NEW\">\nhttp://iphonehosting.eu/2018/8/a/home/7.html</a>   <a href=\"\nhttp://iphonehosting.eu/2018/8/a/home/8.html\" rel=\"nofollow\" target=\"_NEW\">\nhttp://iphonehosting.eu/2018/8/a/home/8.html</a>   <a href=\"\nhttp://iphonehosting.eu/2018/8/a/home/9.html\" rel=\"nofollow\" target=\"_NEW\">\nhttp://iphonehosting.eu/2018/8/a/home/9.html</a>   <a href=\"\nhttp://iphonehosting.eu/2018/8/a/home/10.html\" rel=\"nofollow\" target=\"_NEW\">\nhttp://iphonehosting.eu/2018/8/a/home/10.html</a>\r\n\r\nFile size                                : 1.00 GiB\r\nDuration                                 : 1 h 43 min\r\nOverall bit rate                         : 1 379 kb/s\r\nMovie name                               : 18+ Billionaire Boys Club 2018 Movies 720p BluRay x264 5.1 &#x263B;rDX&#x263B;\r\n\r\nVideo\r\nID                                       : 2\r\nFormat                                   : AVC\r\nFormat/Info                              : Advanced Video Codec\r\nFormat profile                           : High@L4.1\r\nFormat settings, CABAC                   : Yes\r\nFormat settings, ReFrames                : 8 frames\r\nCodec ID                                 : V_MPEG4/ISO/AVC\r\nDuration                                 : 1 h 43 min\r\nBit rate                                 : 1 000 kb/s\r\nWidth                                    : 1 280 pixels\r\nHeight                                   : 536 pixels\r\nDisplay aspect ratio                     : 2.40:1\r\nFrame rate mode                          : Constant\r\nFrame rate                               : 25.000 FPS\r\nColor space                              : YUV\r\nChroma subsampling                       : 4:2:0\r\nBit depth                                : 8 bits\r\nScan type                                : Progressive\r\nBits/(Pixel*Frame)                       : 0.058\r\nStream size                              : 719 MiB (70%)\r\nTitle                                    : &#x263B;rDX&#x263B;\r\nWriting library                          : x264\r\n\r\nAudio\r\nID                                       : 1\r\nFormat                                   : AC-3\r\nFormat/Info                              : Audio Coding 3\r\nMode extension                           : CM (complete main)\r\nFormat settings, Endianness              : Big\r\nCodec ID                                 : A_AC3\r\nDuration                                 : 1 h 43 min\r\nBit rate mode                            : Constant\r\nBit rate                                 : 384 kb/s\r\nChannel(s)                               : 6 channels\r\nChannel positions                        : Front: L C R, Side: L R, LFE\r\nSampling rate                            : 48.0 kHz\r\nFrame rate                               : 31.250 FPS (1536 spf)\r\nBit depth                                : 16 bits\r\nCompression mode                         : Lossy\r\nDelay relative to video                  : -21 ms\r\nStream size                              : 285 MiB (28%)\r\nTitle                                    : &#x263B;rDX&#x263B;\r\nDefault                                  : Yes\r\nForced                                   : No","last_updated":"2018-08-30T12:00:58.497Z","parsed":{"xt":"urn:btih:98bcc25dae528c9be8850a1ad2ba0836c1232d16","dn":"18  Billionaire Boys Club 2018 Movies 720p BluRay x264 5.1  Samp","tr":["udp://exodus.desync.com:6969","udp://open.demonii.com:1337","udp://tracker.coppersurfer.tk:6969","udp://tracker.leechers-paradise.org:6969","udp://zer0day.ch:1337"],"infoHash":"98bcc25dae528c9be8850a1ad2ba0836c1232d16","infoHashBuffer":{"type":"Buffer","data":[152,188,194,93,174,82,140,155,232,133,10,26,210,186,8,54,193,35,45,22]},"name":"18  Billionaire Boys Club 2018 Movies 720p BluRay x264 5.1  Samp","announce":["udp://exodus.desync.com:6969","udp://open.demonii.com:1337","udp://tracker.coppersurfer.tk:6969","udp://tracker.leechers-paradise.org:6969","udp://zer0day.ch:1337"],"urlList":[]}}